<svg width="30" height="30" viewBox="0 0 30 30" fill="none" xmlns="http://www.w3.org/2000/svg">
<path d="M22.9624 0.500209C21.7007 0.845816 20.4399 1.19142 19.1783 1.53777L19.046 1.056L19.1783 1.53778C17.7356 1.93383 16.2929 2.3301 14.8502 2.72636C11.2586 3.7129 7.66696 4.69945 4.07424 5.68278L22.9624 0.500209ZM22.9624 0.500209C23.1425 0.500711 23.3234 0.500774 23.5042 0.500782C23.5713 0.521661 23.6308 0.539116 23.6856 0.555184C23.8179 0.593946 23.9225 0.624631 24.0386 0.675825C24.6362 0.940384 25.0276 1.38275 25.2159 2.02302L22.9624 0.500209ZM25.6351 3.59378C24.3358 3.94274 23.0381 4.29824 21.7418 4.65335C21.3834 4.75155 21.025 4.84972 20.6668 4.94771L20.6666 4.94776C19.8762 5.16428 19.0858 5.38078 18.2953 5.59727C14.9235 6.52081 11.5516 7.44436 8.18024 8.36997L8.17993 8.37005C8.08844 8.39523 8.00539 8.40691 7.91961 8.40694C7.71174 8.40677 7.50385 8.40658 7.29592 8.40638C5.67589 8.40487 4.0542 8.40337 2.43244 8.41104C2.28201 7.73547 2.37187 7.16024 2.62659 6.71585C2.89382 6.24965 3.37242 5.87505 4.07413 5.68281L25.6351 3.59378Z" fill="white" stroke="#38B000"/>
<path d="M28.8611 16.248C28.8291 16.3507 28.8276 16.4416 28.8295 16.4925L28.8162 16.5755C28.6934 17.3385 28.2938 17.8551 27.6165 18.1755C27.3837 18.2854 27.1507 18.3517 26.8828 18.4193C26.8825 17.9992 26.8817 17.5795 26.8808 17.1603C26.8784 15.946 26.876 14.7347 26.8867 13.5222L26.8867 13.522C26.898 12.195 26.5121 11.033 25.6789 10.0731C26.1939 9.93311 26.7059 9.79357 27.215 9.64808C27.4774 10.6615 27.7395 11.675 28.0016 12.6886L28.0022 12.6907C28.2865 13.7902 28.5709 14.8897 28.8556 15.9893L28.8576 15.997L28.8599 16.0046C28.8603 16.006 28.8607 16.0074 28.8611 16.0088V16.0092V16.0101V16.0111V16.012V16.0129V16.0138V16.0147V16.0156V16.0166V16.0175V16.0184V16.0193V16.0202V16.0211V16.022V16.023V16.0239V16.0248V16.0257V16.0266V16.0275V16.0285V16.0294V16.0303V16.0312V16.0321V16.033V16.034V16.0349V16.0358V16.0367V16.0376V16.0385V16.0394V16.0404V16.0413V16.0422V16.0431V16.044V16.0449V16.0459V16.0468V16.0477V16.0486V16.0495V16.0504V16.0514V16.0523V16.0532V16.0541V16.055V16.0559V16.0568V16.0578V16.0587V16.0596V16.0605V16.0614V16.0623V16.0633V16.0642V16.0651V16.066V16.0669V16.0678V16.0687V16.0697V16.0706V16.0715V16.0724V16.0733V16.0742V16.0752V16.0761V16.077V16.0779V16.0788V16.0797V16.0806V16.0816V16.0825V16.0834V16.0843V16.0852V16.0861V16.0871V16.088V16.0889V16.0898V16.0907V16.0916V16.0925V16.0935V16.0944V16.0953V16.0962V16.0971V16.098V16.099V16.0999V16.1008V16.1017V16.1026V16.1035V16.1044V16.1054V16.1063V16.1072V16.1081V16.109V16.1099V16.1109V16.1118V16.1127V16.1136V16.1145V16.1154V16.1163V16.1173V16.1182V16.1191V16.12V16.1209V16.1218V16.1228V16.1237V16.1246V16.1255V16.1264V16.1273V16.1282V16.1292V16.1301V16.131V16.1319V16.1328V16.1337V16.1347V16.1356V16.1365V16.1374V16.1383V16.1392V16.1401V16.1411V16.142V16.1429V16.1438V16.1447V16.1456V16.1466V16.1475V16.1484V16.1493V16.1502V16.1511V16.152V16.153V16.1539V16.1548V16.1557V16.1566V16.1575V16.1585V16.1594V16.1603V16.1612V16.1621V16.163V16.1639V16.1649V16.1658V16.1667V16.1676V16.1685V16.1694V16.1704V16.1713V16.1722V16.1731V16.174V16.1749V16.1759V16.1768V16.1777V16.1786V16.1795V16.1804V16.1813V16.1823V16.1832V16.1841V16.185V16.1859V16.1868V16.1878V16.1887V16.1896V16.1905V16.1914V16.1923V16.1932V16.1942V16.1951V16.196V16.1969V16.1978V16.1987V16.1997V16.2006V16.2015V16.2024V16.2033V16.2042V16.2052V16.2061V16.207V16.2079V16.2088V16.2097V16.2106V16.2116V16.2125V16.2134V16.2143V16.2152V16.2161V16.2171V16.218V16.2189V16.2198V16.2207V16.2216V16.2226V16.2235V16.2244V16.2253V16.2262V16.2271V16.228V16.229V16.2299V16.2308V16.2317V16.2326V16.2335V16.2345V16.2354V16.2363V16.2372V16.2381V16.239V16.24V16.2409V16.2418V16.2427V16.2436V16.2445V16.2455V16.2464V16.2473V16.248ZM27.5283 9.55769C27.5283 9.55772 27.5275 9.55797 27.5258 9.55834C27.5275 9.55784 27.5284 9.55766 27.5283 9.55769Z" fill="white" stroke="#38B000"/>
<mask id="path-3-inside-1_2_174" fill="white">
<path d="M29.3108 16.6546C29.2955 16.5481 29.2741 16.4401 29.3621 16.3516C29.3621 16.4494 29.3621 16.5466 29.3621 16.6444C29.3445 16.6444 29.3277 16.6476 29.3108 16.6546Z"/>
</mask>
<path d="M29.3108 16.6546C29.2955 16.5481 29.2741 16.4401 29.3621 16.3516C29.3621 16.4494 29.3621 16.5466 29.3621 16.6444C29.3445 16.6444 29.3277 16.6476 29.3108 16.6546Z" fill="#363636"/>
<path d="M29.3108 16.6546L28.321 16.7969L28.5049 18.076L29.6969 17.5771L29.3108 16.6546ZM29.3621 16.3516H30.3621V13.9283L28.6531 15.6463L29.3621 16.3516ZM29.3621 16.6444V17.6444H30.3621V16.6444H29.3621ZM30.3007 16.5123C30.2969 16.4863 30.2974 16.4903 30.2952 16.475C30.2941 16.4671 30.2942 16.4668 30.2945 16.4702C30.295 16.475 30.2991 16.5132 30.2951 16.5687C30.2908 16.6278 30.2771 16.7122 30.2375 16.8069C30.1968 16.9043 30.1385 16.989 30.0711 17.0568L28.6531 15.6463C28.4099 15.8909 28.318 16.1809 28.3004 16.4239C28.2868 16.61 28.3207 16.7948 28.321 16.7969L30.3007 16.5123ZM28.3621 16.3516C28.3621 16.3518 28.3621 16.3519 28.3621 16.3521C28.3621 16.3523 28.3621 16.3525 28.3621 16.3527C28.3621 16.3529 28.3621 16.3531 28.3621 16.3533C28.3621 16.3535 28.3621 16.3537 28.3621 16.3539C28.3621 16.354 28.3621 16.3542 28.3621 16.3544C28.3621 16.3546 28.3621 16.3548 28.3621 16.355C28.3621 16.3552 28.3621 16.3554 28.3621 16.3556C28.3621 16.3558 28.3621 16.356 28.3621 16.3562C28.3621 16.3563 28.3621 16.3565 28.3621 16.3567C28.3621 16.3569 28.3621 16.3571 28.3621 16.3573C28.3621 16.3575 28.3621 16.3577 28.3621 16.3579C28.3621 16.3581 28.3621 16.3583 28.3621 16.3584C28.3621 16.3586 28.3621 16.3588 28.3621 16.359C28.3621 16.3592 28.3621 16.3594 28.3621 16.3596C28.3621 16.3598 28.3621 16.36 28.3621 16.3602C28.3621 16.3604 28.3621 16.3605 28.3621 16.3607C28.3621 16.3609 28.3621 16.3611 28.3621 16.3613C28.3621 16.3615 28.3621 16.3617 28.3621 16.3619C28.3621 16.3621 28.3621 16.3623 28.3621 16.3625C28.3621 16.3626 28.3621 16.3628 28.3621 16.363C28.3621 16.3632 28.3621 16.3634 28.3621 16.3636C28.3621 16.3638 28.3621 16.364 28.3621 16.3642C28.3621 16.3644 28.3621 16.3646 28.3621 16.3647C28.3621 16.3649 28.3621 16.3651 28.3621 16.3653C28.3621 16.3655 28.3621 16.3657 28.3621 16.3659C28.3621 16.3661 28.3621 16.3663 28.3621 16.3665C28.3621 16.3667 28.3621 16.3669 28.3621 16.367C28.3621 16.3672 28.3621 16.3674 28.3621 16.3676C28.3621 16.3678 28.3621 16.368 28.3621 16.3682C28.3621 16.3684 28.3621 16.3686 28.3621 16.3688C28.3621 16.369 28.3621 16.3691 28.3621 16.3693C28.3621 16.3695 28.3621 16.3697 28.3621 16.3699C28.3621 16.3701 28.3621 16.3703 28.3621 16.3705C28.3621 16.3707 28.3621 16.3709 28.3621 16.3711C28.3621 16.3712 28.3621 16.3714 28.3621 16.3716C28.3621 16.3718 28.3621 16.372 28.3621 16.3722C28.3621 16.3724 28.3621 16.3726 28.3621 16.3728C28.3621 16.373 28.3621 16.3732 28.3621 16.3733C28.3621 16.3735 28.3621 16.3737 28.3621 16.3739C28.3621 16.3741 28.3621 16.3743 28.3621 16.3745C28.3621 16.3747 28.3621 16.3749 28.3621 16.3751C28.3621 16.3753 28.3621 16.3754 28.3621 16.3756C28.3621 16.3758 28.3621 16.376 28.3621 16.3762C28.3621 16.3764 28.3621 16.3766 28.3621 16.3768C28.3621 16.377 28.3621 16.3772 28.3621 16.3774C28.3621 16.3775 28.3621 16.3777 28.3621 16.3779C28.3621 16.3781 28.3621 16.3783 28.3621 16.3785C28.3621 16.3787 28.3621 16.3789 28.3621 16.3791C28.3621 16.3793 28.3621 16.3795 28.3621 16.3796C28.3621 16.3798 28.3621 16.38 28.3621 16.3802C28.3621 16.3804 28.3621 16.3806 28.3621 16.3808C28.3621 16.381 28.3621 16.3812 28.3621 16.3814C28.3621 16.3816 28.3621 16.3817 28.3621 16.3819C28.3621 16.3821 28.3621 16.3823 28.3621 16.3825C28.3621 16.3827 28.3621 16.3829 28.3621 16.3831C28.3621 16.3833 28.3621 16.3835 28.3621 16.3837C28.3621 16.3838 28.3621 16.384 28.3621 16.3842C28.3621 16.3844 28.3621 16.3846 28.3621 16.3848C28.3621 16.385 28.3621 16.3852 28.3621 16.3854C28.3621 16.3856 28.3621 16.3858 28.3621 16.3859C28.3621 16.3861 28.3621 16.3863 28.3621 16.3865C28.3621 16.3867 28.3621 16.3869 28.3621 16.3871C28.3621 16.3873 28.3621 16.3875 28.3621 16.3877C28.3621 16.3879 28.3621 16.388 28.3621 16.3882C28.3621 16.3884 28.3621 16.3886 28.3621 16.3888C28.3621 16.389 28.3621 16.3892 28.3621 16.3894C28.3621 16.3896 28.3621 16.3898 28.3621 16.39C28.3621 16.3901 28.3621 16.3903 28.3621 16.3905C28.3621 16.3907 28.3621 16.3909 28.3621 16.3911C28.3621 16.3913 28.3621 16.3915 28.3621 16.3917C28.3621 16.3919 28.3621 16.3921 28.3621 16.3922C28.3621 16.3924 28.3621 16.3926 28.3621 16.3928C28.3621 16.393 28.3621 16.3932 28.3621 16.3934C28.3621 16.3936 28.3621 16.3938 28.3621 16.394C28.3621 16.3942 28.3621 16.3943 28.3621 16.3945C28.3621 16.3947 28.3621 16.3949 28.3621 16.3951C28.3621 16.3953 28.3621 16.3955 28.3621 16.3957C28.3621 16.3959 28.3621 16.3961 28.3621 16.3963C28.3621 16.3964 28.3621 16.3966 28.3621 16.3968C28.3621 16.397 28.3621 16.3972 28.3621 16.3974C28.3621 16.3976 28.3621 16.3978 28.3621 16.398C28.3621 16.3982 28.3621 16.3983 28.3621 16.3985C28.3621 16.3987 28.3621 16.3989 28.3621 16.3991C28.3621 16.3993 28.3621 16.3995 28.3621 16.3997C28.3621 16.3999 28.3621 16.4001 28.3621 16.4003C28.3621 16.4004 28.3621 16.4006 28.3621 16.4008C28.3621 16.401 28.3621 16.4012 28.3621 16.4014C28.3621 16.4016 28.3621 16.4018 28.3621 16.402C28.3621 16.4022 28.3621 16.4024 28.3621 16.4025C28.3621 16.4027 28.3621 16.4029 28.3621 16.4031C28.3621 16.4033 28.3621 16.4035 28.3621 16.4037C28.3621 16.4039 28.3621 16.4041 28.3621 16.4043C28.3621 16.4045 28.3621 16.4046 28.3621 16.4048C28.3621 16.405 28.3621 16.4052 28.3621 16.4054C28.3621 16.4056 28.3621 16.4058 28.3621 16.406C28.3621 16.4062 28.3621 16.4064 28.3621 16.4066C28.3621 16.4067 28.3621 16.4069 28.3621 16.4071C28.3621 16.4073 28.3621 16.4075 28.3621 16.4077C28.3621 16.4079 28.3621 16.4081 28.3621 16.4083C28.3621 16.4085 28.3621 16.4086 28.3621 16.4088C28.3621 16.409 28.3621 16.4092 28.3621 16.4094C28.3621 16.4096 28.3621 16.4098 28.3621 16.41C28.3621 16.4102 28.3621 16.4104 28.3621 16.4106C28.3621 16.4107 28.3621 16.4109 28.3621 16.4111C28.3621 16.4113 28.3621 16.4115 28.3621 16.4117C28.3621 16.4119 28.3621 16.4121 28.3621 16.4123C28.3621 16.4125 28.3621 16.4127 28.3621 16.4128C28.3621 16.413 28.3621 16.4132 28.3621 16.4134C28.3621 16.4136 28.3621 16.4138 28.3621 16.414C28.3621 16.4142 28.3621 16.4144 28.3621 16.4146C28.3621 16.4148 28.3621 16.4149 28.3621 16.4151C28.3621 16.4153 28.3621 16.4155 28.3621 16.4157C28.3621 16.4159 28.3621 16.4161 28.3621 16.4163C28.3621 16.4165 28.3621 16.4167 28.3621 16.4168C28.3621 16.417 28.3621 16.4172 28.3621 16.4174C28.3621 16.4176 28.3621 16.4178 28.3621 16.418C28.3621 16.4182 28.3621 16.4184 28.3621 16.4186C28.3621 16.4188 28.3621 16.4189 28.3621 16.4191C28.3621 16.4193 28.3621 16.4195 28.3621 16.4197C28.3621 16.4199 28.3621 16.4201 28.3621 16.4203C28.3621 16.4205 28.3621 16.4207 28.3621 16.4209C28.3621 16.421 28.3621 16.4212 28.3621 16.4214C28.3621 16.4216 28.3621 16.4218 28.3621 16.422C28.3621 16.4222 28.3621 16.4224 28.3621 16.4226C28.3621 16.4228 28.3621 16.4229 28.3621 16.4231C28.3621 16.4233 28.3621 16.4235 28.3621 16.4237C28.3621 16.4239 28.3621 16.4241 28.3621 16.4243C28.3621 16.4245 28.3621 16.4247 28.3621 16.4249C28.3621 16.425 28.3621 16.4252 28.3621 16.4254C28.3621 16.4256 28.3621 16.4258 28.3621 16.426C28.3621 16.4262 28.3621 16.4264 28.3621 16.4266C28.3621 16.4268 28.3621 16.427 28.3621 16.4271C28.3621 16.4273 28.3621 16.4275 28.3621 16.4277C28.3621 16.4279 28.3621 16.4281 28.3621 16.4283C28.3621 16.4285 28.3621 16.4287 28.3621 16.4289C28.3621 16.429 28.3621 16.4292 28.3621 16.4294C28.3621 16.4296 28.3621 16.4298 28.3621 16.43C28.3621 16.4302 28.3621 16.4304 28.3621 16.4306C28.3621 16.4308 28.3621 16.431 28.3621 16.4311C28.3621 16.4313 28.3621 16.4315 28.3621 16.4317C28.3621 16.4319 28.3621 16.4321 28.3621 16.4323C28.3621 16.4325 28.3621 16.4327 28.3621 16.4329C28.3621 16.4331 28.3621 16.4332 28.3621 16.4334C28.3621 16.4336 28.3621 16.4338 28.3621 16.434C28.3621 16.4342 28.3621 16.4344 28.3621 16.4346C28.3621 16.4348 28.3621 16.435 28.3621 16.4351C28.3621 16.4353 28.3621 16.4355 28.3621 16.4357C28.3621 16.4359 28.3621 16.4361 28.3621 16.4363C28.3621 16.4365 28.3621 16.4367 28.3621 16.4369C28.3621 16.4371 28.3621 16.4372 28.3621 16.4374C28.3621 16.4376 28.3621 16.4378 28.3621 16.438C28.3621 16.4382 28.3621 16.4384 28.3621 16.4386C28.3621 16.4388 28.3621 16.439 28.3621 16.4391C28.3621 16.4393 28.3621 16.4395 28.3621 16.4397C28.3621 16.4399 28.3621 16.4401 28.3621 16.4403C28.3621 16.4405 28.3621 16.4407 28.3621 16.4409C28.3621 16.4411 28.3621 16.4412 28.3621 16.4414C28.3621 16.4416 28.3621 16.4418 28.3621 16.442C28.3621 16.4422 28.3621 16.4424 28.3621 16.4426C28.3621 16.4428 28.3621 16.443 28.3621 16.4432C28.3621 16.4433 28.3621 16.4435 28.3621 16.4437C28.3621 16.4439 28.3621 16.4441 28.3621 16.4443C28.3621 16.4445 28.3621 16.4447 28.3621 16.4449C28.3621 16.4451 28.3621 16.4452 28.3621 16.4454C28.3621 16.4456 28.3621 16.4458 28.3621 16.446C28.3621 16.4462 28.3621 16.4464 28.3621 16.4466C28.3621 16.4468 28.3621 16.447 28.3621 16.4472C28.3621 16.4473 28.3621 16.4475 28.3621 16.4477C28.3621 16.4479 28.3621 16.4481 28.3621 16.4483C28.3621 16.4485 28.3621 16.4487 28.3621 16.4489C28.3621 16.4491 28.3621 16.4492 28.3621 16.4494C28.3621 16.4496 28.3621 16.4498 28.3621 16.45C28.3621 16.4502 28.3621 16.4504 28.3621 16.4506C28.3621 16.4508 28.3621 16.451 28.3621 16.4512C28.3621 16.4513 28.3621 16.4515 28.3621 16.4517C28.3621 16.4519 28.3621 16.4521 28.3621 16.4523C28.3621 16.4525 28.3621 16.4527 28.3621 16.4529C28.3621 16.4531 28.3621 16.4532 28.3621 16.4534C28.3621 16.4536 28.3621 16.4538 28.3621 16.454C28.3621 16.4542 28.3621 16.4544 28.3621 16.4546C28.3621 16.4548 28.3621 16.455 28.3621 16.4552C28.3621 16.4553 28.3621 16.4555 28.3621 16.4557C28.3621 16.4559 28.3621 16.4561 28.3621 16.4563C28.3621 16.4565 28.3621 16.4567 28.3621 16.4569C28.3621 16.4571 28.3621 16.4572 28.3621 16.4574C28.3621 16.4576 28.3621 16.4578 28.3621 16.458C28.3621 16.4582 28.3621 16.4584 28.3621 16.4586C28.3621 16.4588 28.3621 16.459 28.3621 16.4592C28.3621 16.4593 28.3621 16.4595 28.3621 16.4597C28.3621 16.4599 28.3621 16.4601 28.3621 16.4603C28.3621 16.4605 28.3621 16.4607 28.3621 16.4609C28.3621 16.4611 28.3621 16.4612 28.3621 16.4614C28.3621 16.4616 28.3621 16.4618 28.3621 16.462C28.3621 16.4622 28.3621 16.4624 28.3621 16.4626C28.3621 16.4628 28.3621 16.463 28.3621 16.4632C28.3621 16.4633 28.3621 16.4635 28.3621 16.4637C28.3621 16.4639 28.3621 16.4641 28.3621 16.4643C28.3621 16.4645 28.3621 16.4647 28.3621 16.4649C28.3621 16.4651 28.3621 16.4652 28.3621 16.4654C28.3621 16.4656 28.3621 16.4658 28.3621 16.466C28.3621 16.4662 28.3621 16.4664 28.3621 16.4666C28.3621 16.4668 28.3621 16.467 28.3621 16.4672C28.3621 16.4673 28.3621 16.4675 28.3621 16.4677C28.3621 16.4679 28.3621 16.4681 28.3621 16.4683C28.3621 16.4685 28.3621 16.4687 28.3621 16.4689C28.3621 16.4691 28.3621 16.4692 28.3621 16.4694C28.3621 16.4696 28.3621 16.4698 28.3621 16.47C28.3621 16.4702 28.3621 16.4704 28.3621 16.4706C28.3621 16.4708 28.3621 16.471 28.3621 16.4712C28.3621 16.4713 28.3621 16.4715 28.3621 16.4717C28.3621 16.4719 28.3621 16.4721 28.3621 16.4723C28.3621 16.4725 28.3621 16.4727 28.3621 16.4729C28.3621 16.4731 28.3621 16.4732 28.3621 16.4734C28.3621 16.4736 28.3621 16.4738 28.3621 16.474C28.3621 16.4742 28.3621 16.4744 28.3621 16.4746C28.3621 16.4748 28.3621 16.475 28.3621 16.4752C28.3621 16.4753 28.3621 16.4755 28.3621 16.4757C28.3621 16.4759 28.3621 16.4761 28.3621 16.4763C28.3621 16.4765 28.3621 16.4767 28.3621 16.4769C28.3621 16.4771 28.3621 16.4772 28.3621 16.4774C28.3621 16.4776 28.3621 16.4778 28.3621 16.478C28.3621 16.4782 28.3621 16.4784 28.3621 16.4786C28.3621 16.4788 28.3621 16.479 28.3621 16.4791C28.3621 16.4793 28.3621 16.4795 28.3621 16.4797C28.3621 16.4799 28.3621 16.4801 28.3621 16.4803C28.3621 16.4805 28.3621 16.4807 28.3621 16.4809C28.3621 16.4811 28.3621 16.4812 28.3621 16.4814C28.3621 16.4816 28.3621 16.4818 28.3621 16.482C28.3621 16.4822 28.3621 16.4824 28.3621 16.4826C28.3621 16.4828 28.3621 16.483 28.3621 16.4831C28.3621 16.4833 28.3621 16.4835 28.3621 16.4837C28.3621 16.4839 28.3621 16.4841 28.3621 16.4843C28.3621 16.4845 28.3621 16.4847 28.3621 16.4849C28.3621 16.4851 28.3621 16.4852 28.3621 16.4854C28.3621 16.4856 28.3621 16.4858 28.3621 16.486C28.3621 16.4862 28.3621 16.4864 28.3621 16.4866C28.3621 16.4868 28.3621 16.487 28.3621 16.4871C28.3621 16.4873 28.3621 16.4875 28.3621 16.4877C28.3621 16.4879 28.3621 16.4881 28.3621 16.4883C28.3621 16.4885 28.3621 16.4887 28.3621 16.4889C28.3621 16.4891 28.3621 16.4892 28.3621 16.4894C28.3621 16.4896 28.3621 16.4898 28.3621 16.49C28.3621 16.4902 28.3621 16.4904 28.3621 16.4906C28.3621 16.4908 28.3621 16.491 28.3621 16.4911C28.3621 16.4913 28.3621 16.4915 28.3621 16.4917C28.3621 16.4919 28.3621 16.4921 28.3621 16.4923C28.3621 16.4925 28.3621 16.4927 28.3621 16.4929C28.3621 16.4931 28.3621 16.4932 28.3621 16.4934C28.3621 16.4936 28.3621 16.4938 28.3621 16.494C28.3621 16.4942 28.3621 16.4944 28.3621 16.4946C28.3621 16.4948 28.3621 16.495 28.3621 16.4951C28.3621 16.4953 28.3621 16.4955 28.3621 16.4957C28.3621 16.4959 28.3621 16.4961 28.3621 16.4963C28.3621 16.4965 28.3621 16.4967 28.3621 16.4969C28.3621 16.497 28.3621 16.4972 28.3621 16.4974C28.3621 16.4976 28.3621 16.4978 28.3621 16.498C28.3621 16.4982 28.3621 16.4984 28.3621 16.4986C28.3621 16.4988 28.3621 16.499 28.3621 16.4991C28.3621 16.4993 28.3621 16.4995 28.3621 16.4997C28.3621 16.4999 28.3621 16.5001 28.3621 16.5003C28.3621 16.5005 28.3621 16.5007 28.3621 16.5009C28.3621 16.501 28.3621 16.5012 28.3621 16.5014C28.3621 16.5016 28.3621 16.5018 28.3621 16.502C28.3621 16.5022 28.3621 16.5024 28.3621 16.5026C28.3621 16.5028 28.3621 16.503 28.3621 16.5031C28.3621 16.5033 28.3621 16.5035 28.3621 16.5037C28.3621 16.5039 28.3621 16.5041 28.3621 16.5043C28.3621 16.5045 28.3621 16.5047 28.3621 16.5049C28.3621 16.505 28.3621 16.5052 28.3621 16.5054C28.3621 16.5056 28.3621 16.5058 28.3621 16.506C28.3621 16.5062 28.3621 16.5064 28.3621 16.5066C28.3621 16.5068 28.3621 16.507 28.3621 16.5071C28.3621 16.5073 28.3621 16.5075 28.3621 16.5077C28.3621 16.5079 28.3621 16.5081 28.3621 16.5083C28.3621 16.5085 28.3621 16.5087 28.3621 16.5089C28.3621 16.509 28.3621 16.5092 28.3621 16.5094C28.3621 16.5096 28.3621 16.5098 28.3621 16.51C28.3621 16.5102 28.3621 16.5104 28.3621 16.5106C28.3621 16.5108 28.3621 16.511 28.3621 16.5111C28.3621 16.5113 28.3621 16.5115 28.3621 16.5117C28.3621 16.5119 28.3621 16.5121 28.3621 16.5123C28.3621 16.5125 28.3621 16.5127 28.3621 16.5129C28.3621 16.513 28.3621 16.5132 28.3621 16.5134C28.3621 16.5136 28.3621 16.5138 28.3621 16.514C28.3621 16.5142 28.3621 16.5144 28.3621 16.5146C28.3621 16.5148 28.3621 16.5149 28.3621 16.5151C28.3621 16.5153 28.3621 16.5155 28.3621 16.5157C28.3621 16.5159 28.3621 16.5161 28.3621 16.5163C28.3621 16.5165 28.3621 16.5167 28.3621 16.5169C28.3621 16.517 28.3621 16.5172 28.3621 16.5174C28.3621 16.5176 28.3621 16.5178 28.3621 16.518C28.3621 16.5182 28.3621 16.5184 28.3621 16.5186C28.3621 16.5188 28.3621 16.5189 28.3621 16.5191C28.3621 16.5193 28.3621 16.5195 28.3621 16.5197C28.3621 16.5199 28.3621 16.5201 28.3621 16.5203C28.3621 16.5205 28.3621 16.5207 28.3621 16.5209C28.3621 16.521 28.3621 16.5212 28.3621 16.5214C28.3621 16.5216 28.3621 16.5218 28.3621 16.522C28.3621 16.5222 28.3621 16.5224 28.3621 16.5226C28.3621 16.5228 28.3621 16.5229 28.3621 16.5231C28.3621 16.5233 28.3621 16.5235 28.3621 16.5237C28.3621 16.5239 28.3621 16.5241 28.3621 16.5243C28.3621 16.5245 28.3621 16.5247 28.3621 16.5249C28.3621 16.525 28.3621 16.5252 28.3621 16.5254C28.3621 16.5256 28.3621 16.5258 28.3621 16.526C28.3621 16.5262 28.3621 16.5264 28.3621 16.5266C28.3621 16.5268 28.3621 16.5269 28.3621 16.5271C28.3621 16.5273 28.3621 16.5275 28.3621 16.5277C28.3621 16.5279 28.3621 16.5281 28.3621 16.5283C28.3621 16.5285 28.3621 16.5287 28.3621 16.5289C28.3621 16.529 28.3621 16.5292 28.3621 16.5294C28.3621 16.5296 28.3621 16.5298 28.3621 16.53C28.3621 16.5302 28.3621 16.5304 28.3621 16.5306C28.3621 16.5308 28.3621 16.5309 28.3621 16.5311C28.3621 16.5313 28.3621 16.5315 28.3621 16.5317C28.3621 16.5319 28.3621 16.5321 28.3621 16.5323C28.3621 16.5325 28.3621 16.5327 28.3621 16.5329C28.3621 16.533 28.3621 16.5332 28.3621 16.5334C28.3621 16.5336 28.3621 16.5338 28.3621 16.534C28.3621 16.5342 28.3621 16.5344 28.3621 16.5346C28.3621 16.5348 28.3621 16.5349 28.3621 16.5351C28.3621 16.5353 28.3621 16.5355 28.3621 16.5357C28.3621 16.5359 28.3621 16.5361 28.3621 16.5363C28.3621 16.5365 28.3621 16.5367 28.3621 16.5369C28.3621 16.537 28.3621 16.5372 28.3621 16.5374C28.3621 16.5376 28.3621 16.5378 28.3621 16.538C28.3621 16.5382 28.3621 16.5384 28.3621 16.5386C28.3621 16.5388 28.3621 16.5389 28.3621 16.5391C28.3621 16.5393 28.3621 16.5395 28.3621 16.5397C28.3621 16.5399 28.3621 16.5401 28.3621 16.5403C28.3621 16.5405 28.3621 16.5407 28.3621 16.5409C28.3621 16.541 28.3621 16.5412 28.3621 16.5414C28.3621 16.5416 28.3621 16.5418 28.3621 16.542C28.3621 16.5422 28.3621 16.5424 28.3621 16.5426C28.3621 16.5428 28.3621 16.5429 28.3621 16.5431C28.3621 16.5433 28.3621 16.5435 28.3621 16.5437C28.3621 16.5439 28.3621 16.5441 28.3621 16.5443C28.3621 16.5445 28.3621 16.5447 28.3621 16.5449C28.3621 16.545 28.3621 16.5452 28.3621 16.5454C28.3621 16.5456 28.3621 16.5458 28.3621 16.546C28.3621 16.5462 28.3621 16.5464 28.3621 16.5466C28.3621 16.5468 28.3621 16.5469 28.3621 16.5471C28.3621 16.5473 28.3621 16.5475 28.3621 16.5477C28.3621 16.5479 28.3621 16.5481 28.3621 16.5483C28.3621 16.5485 28.3621 16.5487 28.3621 16.5489C28.3621 16.549 28.3621 16.5492 28.3621 16.5494C28.3621 16.5496 28.3621 16.5498 28.3621 16.55C28.3621 16.5502 28.3621 16.5504 28.3621 16.5506C28.3621 16.5508 28.3621 16.5509 28.3621 16.5511C28.3621 16.5513 28.3621 16.5515 28.3621 16.5517C28.3621 16.5519 28.3621 16.5521 28.3621 16.5523C28.3621 16.5525 28.3621 16.5527 28.3621 16.5529C28.3621 16.553 28.3621 16.5532 28.3621 16.5534C28.3621 16.5536 28.3621 16.5538 28.3621 16.554C28.3621 16.5542 28.3621 16.5544 28.3621 16.5546C28.3621 16.5548 28.3621 16.5549 28.3621 16.5551C28.3621 16.5553 28.3621 16.5555 28.3621 16.5557C28.3621 16.5559 28.3621 16.5561 28.3621 16.5563C28.3621 16.5565 28.3621 16.5567 28.3621 16.5569C28.3621 16.557 28.3621 16.5572 28.3621 16.5574C28.3621 16.5576 28.3621 16.5578 28.3621 16.558C28.3621 16.5582 28.3621 16.5584 28.3621 16.5586C28.3621 16.5588 28.3621 16.559 28.3621 16.5591C28.3621 16.5593 28.3621 16.5595 28.3621 16.5597C28.3621 16.5599 28.3621 16.5601 28.3621 16.5603C28.3621 16.5605 28.3621 16.5607 28.3621 16.5609C28.3621 16.561 28.3621 16.5612 28.3621 16.5614C28.3621 16.5616 28.3621 16.5618 28.3621 16.562C28.3621 16.5622 28.3621 16.5624 28.3621 16.5626C28.3621 16.5628 28.3621 16.563 28.3621 16.5631C28.3621 16.5633 28.3621 16.5635 28.3621 16.5637C28.3621 16.5639 28.3621 16.5641 28.3621 16.5643C28.3621 16.5645 28.3621 16.5647 28.3621 16.5649C28.3621 16.565 28.3621 16.5652 28.3621 16.5654C28.3621 16.5656 28.3621 16.5658 28.3621 16.566C28.3621 16.5662 28.3621 16.5664 28.3621 16.5666C28.3621 16.5668 28.3621 16.567 28.3621 16.5671C28.3621 16.5673 28.3621 16.5675 28.3621 16.5677C28.3621 16.5679 28.3621 16.5681 28.3621 16.5683C28.3621 16.5685 28.3621 16.5687 28.3621 16.5689C28.3621 16.5691 28.3621 16.5692 28.3621 16.5694C28.3621 16.5696 28.3621 16.5698 28.3621 16.57C28.3621 16.5702 28.3621 16.5704 28.3621 16.5706C28.3621 16.5708 28.3621 16.571 28.3621 16.5711C28.3621 16.5713 28.3621 16.5715 28.3621 16.5717C28.3621 16.5719 28.3621 16.5721 28.3621 16.5723C28.3621 16.5725 28.3621 16.5727 28.3621 16.5729C28.3621 16.5731 28.3621 16.5732 28.3621 16.5734C28.3621 16.5736 28.3621 16.5738 28.3621 16.574C28.3621 16.5742 28.3621 16.5744 28.3621 16.5746C28.3621 16.5748 28.3621 16.575 28.3621 16.5752C28.3621 16.5753 28.3621 16.5755 28.3621 16.5757C28.3621 16.5759 28.3621 16.5761 28.3621 16.5763C28.3621 16.5765 28.3621 16.5767 28.3621 16.5769C28.3621 16.5771 28.3621 16.5772 28.3621 16.5774C28.3621 16.5776 28.3621 16.5778 28.3621 16.578C28.3621 16.5782 28.3621 16.5784 28.3621 16.5786C28.3621 16.5788 28.3621 16.579 28.3621 16.5792C28.3621 16.5793 28.3621 16.5795 28.3621 16.5797C28.3621 16.5799 28.3621 16.5801 28.3621 16.5803C28.3621 16.5805 28.3621 16.5807 28.3621 16.5809C28.3621 16.5811 28.3621 16.5813 28.3621 16.5814C28.3621 16.5816 28.3621 16.5818 28.3621 16.582C28.3621 16.5822 28.3621 16.5824 28.3621 16.5826C28.3621 16.5828 28.3621 16.583 28.3621 16.5832C28.3621 16.5833 28.3621 16.5835 28.3621 16.5837C28.3621 16.5839 28.3621 16.5841 28.3621 16.5843C28.3621 16.5845 28.3621 16.5847 28.3621 16.5849C28.3621 16.5851 28.3621 16.5853 28.3621 16.5854C28.3621 16.5856 28.3621 16.5858 28.3621 16.586C28.3621 16.5862 28.3621 16.5864 28.3621 16.5866C28.3621 16.5868 28.3621 16.587 28.3621 16.5872C28.3621 16.5874 28.3621 16.5875 28.3621 16.5877C28.3621 16.5879 28.3621 16.5881 28.3621 16.5883C28.3621 16.5885 28.3621 16.5887 28.3621 16.5889C28.3621 16.5891 28.3621 16.5893 28.3621 16.5895C28.3621 16.5896 28.3621 16.5898 28.3621 16.59C28.3621 16.5902 28.3621 16.5904 28.3621 16.5906C28.3621 16.5908 28.3621 16.591 28.3621 16.5912C28.3621 16.5914 28.3621 16.5915 28.3621 16.5917C28.3621 16.5919 28.3621 16.5921 28.3621 16.5923C28.3621 16.5925 28.3621 16.5927 28.3621 16.5929C28.3621 16.5931 28.3621 16.5933 28.3621 16.5935C28.3621 16.5936 28.3621 16.5938 28.3621 16.594C28.3621 16.5942 28.3621 16.5944 28.3621 16.5946C28.3621 16.5948 28.3621 16.595 28.3621 16.5952C28.3621 16.5954 28.3621 16.5956 28.3621 16.5957C28.3621 16.5959 28.3621 16.5961 28.3621 16.5963C28.3621 16.5965 28.3621 16.5967 28.3621 16.5969C28.3621 16.5971 28.3621 16.5973 28.3621 16.5975C28.3621 16.5977 28.3621 16.5978 28.3621 16.598C28.3621 16.5982 28.3621 16.5984 28.3621 16.5986C28.3621 16.5988 28.3621 16.599 28.3621 16.5992C28.3621 16.5994 28.3621 16.5996 28.3621 16.5998C28.3621 16.5999 28.3621 16.6001 28.3621 16.6003C28.3621 16.6005 28.3621 16.6007 28.3621 16.6009C28.3621 16.6011 28.3621 16.6013 28.3621 16.6015C28.3621 16.6017 28.3621 16.6019 28.3621 16.602C28.3621 16.6022 28.3621 16.6024 28.3621 16.6026C28.3621 16.6028 28.3621 16.603 28.3621 16.6032C28.3621 16.6034 28.3621 16.6036 28.3621 16.6038C28.3621 16.604 28.3621 16.6041 28.3621 16.6043C28.3621 16.6045 28.3621 16.6047 28.3621 16.6049C28.3621 16.6051 28.3621 16.6053 28.3621 16.6055C28.3621 16.6057 28.3621 16.6059 28.3621 16.606C28.3621 16.6062 28.3621 16.6064 28.3621 16.6066C28.3621 16.6068 28.3621 16.607 28.3621 16.6072C28.3621 16.6074 28.3621 16.6076 28.3621 16.6078C28.3621 16.608 28.3621 16.6081 28.3621 16.6083C28.3621 16.6085 28.3621 16.6087 28.3621 16.6089C28.3621 16.6091 28.3621 16.6093 28.3621 16.6095C28.3621 16.6097 28.3621 16.6099 28.3621 16.6101C28.3621 16.6102 28.3621 16.6104 28.3621 16.6106C28.3621 16.6108 28.3621 16.611 28.3621 16.6112C28.3621 16.6114 28.3621 16.6116 28.3621 16.6118C28.3621 16.612 28.3621 16.6122 28.3621 16.6123C28.3621 16.6125 28.3621 16.6127 28.3621 16.6129C28.3621 16.6131 28.3621 16.6133 28.3621 16.6135C28.3621 16.6137 28.3621 16.6139 28.3621 16.6141C28.3621 16.6143 28.3621 16.6144 28.3621 16.6146C28.3621 16.6148 28.3621 16.615 28.3621 16.6152C28.3621 16.6154 28.3621 16.6156 28.3621 16.6158C28.3621 16.616 28.3621 16.6162 28.3621 16.6164C28.3621 16.6165 28.3621 16.6167 28.3621 16.6169C28.3621 16.6171 28.3621 16.6173 28.3621 16.6175C28.3621 16.6177 28.3621 16.6179 28.3621 16.6181C28.3621 16.6183 28.3621 16.6185 28.3621 16.6186C28.3621 16.6188 28.3621 16.619 28.3621 16.6192C28.3621 16.6194 28.3621 16.6196 28.3621 16.6198C28.3621 16.62 28.3621 16.6202 28.3621 16.6204C28.3621 16.6206 28.3621 16.6207 28.3621 16.6209C28.3621 16.6211 28.3621 16.6213 28.3621 16.6215C28.3621 16.6217 28.3621 16.6219 28.3621 16.6221C28.3621 16.6223 28.3621 16.6225 28.3621 16.6227C28.3621 16.6228 28.3621 16.623 28.3621 16.6232C28.3621 16.6234 28.3621 16.6236 28.3621 16.6238C28.3621 16.624 28.3621 16.6242 28.3621 16.6244C28.3621 16.6246 28.3621 16.6248 28.3621 16.625C28.3621 16.6251 28.3621 16.6253 28.3621 16.6255C28.3621 16.6257 28.3621 16.6259 28.3621 16.6261C28.3621 16.6263 28.3621 16.6265 28.3621 16.6267C28.3621 16.6269 28.3621 16.6271 28.3621 16.6272C28.3621 16.6274 28.3621 16.6276 28.3621 16.6278C28.3621 16.628 28.3621 16.6282 28.3621 16.6284C28.3621 16.6286 28.3621 16.6288 28.3621 16.629C28.3621 16.6292 28.3621 16.6293 28.3621 16.6295C28.3621 16.6297 28.3621 16.6299 28.3621 16.6301C28.3621 16.6303 28.3621 16.6305 28.3621 16.6307C28.3621 16.6309 28.3621 16.6311 28.3621 16.6313C28.3621 16.6314 28.3621 16.6316 28.3621 16.6318C28.3621 16.632 28.3621 16.6322 28.3621 16.6324C28.3621 16.6326 28.3621 16.6328 28.3621 16.633C28.3621 16.6332 28.3621 16.6334 28.3621 16.6335C28.3621 16.6337 28.3621 16.6339 28.3621 16.6341C28.3621 16.6343 28.3621 16.6345 28.3621 16.6347C28.3621 16.6349 28.3621 16.6351 28.3621 16.6353C28.3621 16.6355 28.3621 16.6356 28.3621 16.6358C28.3621 16.636 28.3621 16.6362 28.3621 16.6364C28.3621 16.6366 28.3621 16.6368 28.3621 16.637C28.3621 16.6372 28.3621 16.6374 28.3621 16.6376C28.3621 16.6378 28.3621 16.6379 28.3621 16.6381C28.3621 16.6383 28.3621 16.6385 28.3621 16.6387C28.3621 16.6389 28.3621 16.6391 28.3621 16.6393C28.3621 16.6395 28.3621 16.6397 28.3621 16.6399C28.3621 16.64 28.3621 16.6402 28.3621 16.6404C28.3621 16.6406 28.3621 16.6408 28.3621 16.641C28.3621 16.6412 28.3621 16.6414 28.3621 16.6416C28.3621 16.6418 28.3621 16.642 28.3621 16.6421C28.3621 16.6423 28.3621 16.6425 28.3621 16.6427C28.3621 16.6429 28.3621 16.6431 28.3621 16.6433C28.3621 16.6435 28.3621 16.6437 28.3621 16.6439C28.3621 16.6441 28.3621 16.6442 28.3621 16.6444H30.3621C30.3621 16.6442 30.3621 16.6441 30.3621 16.6439C30.3621 16.6437 30.3621 16.6435 30.3621 16.6433C30.3621 16.6431 30.3621 16.6429 30.3621 16.6427C30.3621 16.6425 30.3621 16.6423 30.3621 16.6421C30.3621 16.642 30.3621 16.6418 30.3621 16.6416C30.3621 16.6414 30.3621 16.6412 30.3621 16.641C30.3621 16.6408 30.3621 16.6406 30.3621 16.6404C30.3621 16.6402 30.3621 16.64 30.3621 16.6399C30.3621 16.6397 30.3621 16.6395 30.3621 16.6393C30.3621 16.6391 30.3621 16.6389 30.3621 16.6387C30.3621 16.6385 30.3621 16.6383 30.3621 16.6381C30.3621 16.6379 30.3621 16.6378 30.3621 16.6376C30.3621 16.6374 30.3621 16.6372 30.3621 16.637C30.3621 16.6368 30.3621 16.6366 30.3621 16.6364C30.3621 16.6362 30.3621 16.636 30.3621 16.6358C30.3621 16.6356 30.3621 16.6355 30.3621 16.6353C30.3621 16.6351 30.3621 16.6349 30.3621 16.6347C30.3621 16.6345 30.3621 16.6343 30.3621 16.6341C30.3621 16.6339 30.3621 16.6337 30.3621 16.6335C30.3621 16.6334 30.3621 16.6332 30.3621 16.633C30.3621 16.6328 30.3621 16.6326 30.3621 16.6324C30.3621 16.6322 30.3621 16.632 30.3621 16.6318C30.3621 16.6316 30.3621 16.6314 30.3621 16.6313C30.3621 16.6311 30.3621 16.6309 30.3621 16.6307C30.3621 16.6305 30.3621 16.6303 30.3621 16.6301C30.3621 16.6299 30.3621 16.6297 30.3621 16.6295C30.3621 16.6293 30.3621 16.6292 30.3621 16.629C30.3621 16.6288 30.3621 16.6286 30.3621 16.6284C30.3621 16.6282 30.3621 16.628 30.3621 16.6278C30.3621 16.6276 30.3621 16.6274 30.3621 16.6272C30.3621 16.6271 30.3621 16.6269 30.3621 16.6267C30.3621 16.6265 30.3621 16.6263 30.3621 16.6261C30.3621 16.6259 30.3621 16.6257 30.3621 16.6255C30.3621 16.6253 30.3621 16.6251 30.3621 16.625C30.3621 16.6248 30.3621 16.6246 30.3621 16.6244C30.3621 16.6242 30.3621 16.624 30.3621 16.6238C30.3621 16.6236 30.3621 16.6234 30.3621 16.6232C30.3621 16.623 30.3621 16.6228 30.3621 16.6227C30.3621 16.6225 30.3621 16.6223 30.3621 16.6221C30.3621 16.6219 30.3621 16.6217 30.3621 16.6215C30.3621 16.6213 30.3621 16.6211 30.3621 16.6209C30.3621 16.6207 30.3621 16.6206 30.3621 16.6204C30.3621 16.6202 30.3621 16.62 30.3621 16.6198C30.3621 16.6196 30.3621 16.6194 30.3621 16.6192C30.3621 16.619 30.3621 16.6188 30.3621 16.6186C30.3621 16.6185 30.3621 16.6183 30.3621 16.6181C30.3621 16.6179 30.3621 16.6177 30.3621 16.6175C30.3621 16.6173 30.3621 16.6171 30.3621 16.6169C30.3621 16.6167 30.3621 16.6165 30.3621 16.6164C30.3621 16.6162 30.3621 16.616 30.3621 16.6158C30.3621 16.6156 30.3621 16.6154 30.3621 16.6152C30.3621 16.615 30.3621 16.6148 30.3621 16.6146C30.3621 16.6144 30.3621 16.6143 30.3621 16.6141C30.3621 16.6139 30.3621 16.6137 30.3621 16.6135C30.3621 16.6133 30.3621 16.6131 30.3621 16.6129C30.3621 16.6127 30.3621 16.6125 30.3621 16.6123C30.3621 16.6122 30.3621 16.612 30.3621 16.6118C30.3621 16.6116 30.3621 16.6114 30.3621 16.6112C30.3621 16.611 30.3621 16.6108 30.3621 16.6106C30.3621 16.6104 30.3621 16.6102 30.3621 16.6101C30.3621 16.6099 30.3621 16.6097 30.3621 16.6095C30.3621 16.6093 30.3621 16.6091 30.3621 16.6089C30.3621 16.6087 30.3621 16.6085 30.3621 16.6083C30.3621 16.6081 30.3621 16.608 30.3621 16.6078C30.3621 16.6076 30.3621 16.6074 30.3621 16.6072C30.3621 16.607 30.3621 16.6068 30.3621 16.6066C30.3621 16.6064 30.3621 16.6062 30.3621 16.606C30.3621 16.6059 30.3621 16.6057 30.3621 16.6055C30.3621 16.6053 30.3621 16.6051 30.3621 16.6049C30.3621 16.6047 30.3621 16.6045 30.3621 16.6043C30.3621 16.6041 30.3621 16.604 30.3621 16.6038C30.3621 16.6036 30.3621 16.6034 30.3621 16.6032C30.3621 16.603 30.3621 16.6028 30.3621 16.6026C30.3621 16.6024 30.3621 16.6022 30.3621 16.602C30.3621 16.6019 30.3621 16.6017 30.3621 16.6015C30.3621 16.6013 30.3621 16.6011 30.3621 16.6009C30.3621 16.6007 30.3621 16.6005 30.3621 16.6003C30.3621 16.6001 30.3621 16.5999 30.3621 16.5998C30.3621 16.5996 30.3621 16.5994 30.3621 16.5992C30.3621 16.599 30.3621 16.5988 30.3621 16.5986C30.3621 16.5984 30.3621 16.5982 30.3621 16.598C30.3621 16.5978 30.3621 16.5977 30.3621 16.5975C30.3621 16.5973 30.3621 16.5971 30.3621 16.5969C30.3621 16.5967 30.3621 16.5965 30.3621 16.5963C30.3621 16.5961 30.3621 16.5959 30.3621 16.5957C30.3621 16.5956 30.3621 16.5954 30.3621 16.5952C30.3621 16.595 30.3621 16.5948 30.3621 16.5946C30.3621 16.5944 30.3621 16.5942 30.3621 16.594C30.3621 16.5938 30.3621 16.5936 30.3621 16.5935C30.3621 16.5933 30.3621 16.5931 30.3621 16.5929C30.3621 16.5927 30.3621 16.5925 30.3621 16.5923C30.3621 16.5921 30.3621 16.5919 30.3621 16.5917C30.3621 16.5915 30.3621 16.5914 30.3621 16.5912C30.3621 16.591 30.3621 16.5908 30.3621 16.5906C30.3621 16.5904 30.3621 16.5902 30.3621 16.59C30.3621 16.5898 30.3621 16.5896 30.3621 16.5895C30.3621 16.5893 30.3621 16.5891 30.3621 16.5889C30.3621 16.5887 30.3621 16.5885 30.3621 16.5883C30.3621 16.5881 30.3621 16.5879 30.3621 16.5877C30.3621 16.5875 30.3621 16.5874 30.3621 16.5872C30.3621 16.587 30.3621 16.5868 30.3621 16.5866C30.3621 16.5864 30.3621 16.5862 30.3621 16.586C30.3621 16.5858 30.3621 16.5856 30.3621 16.5854C30.3621 16.5853 30.3621 16.5851 30.3621 16.5849C30.3621 16.5847 30.3621 16.5845 30.3621 16.5843C30.3621 16.5841 30.3621 16.5839 30.3621 16.5837C30.3621 16.5835 30.3621 16.5833 30.3621 16.5832C30.3621 16.583 30.3621 16.5828 30.3621 16.5826C30.3621 16.5824 30.3621 16.5822 30.3621 16.582C30.3621 16.5818 30.3621 16.5816 30.3621 16.5814C30.3621 16.5813 30.3621 16.5811 30.3621 16.5809C30.3621 16.5807 30.3621 16.5805 30.3621 16.5803C30.3621 16.5801 30.3621 16.5799 30.3621 16.5797C30.3621 16.5795 30.3621 16.5793 30.3621 16.5792C30.3621 16.579 30.3621 16.5788 30.3621 16.5786C30.3621 16.5784 30.3621 16.5782 30.3621 16.578C30.3621 16.5778 30.3621 16.5776 30.3621 16.5774C30.3621 16.5772 30.3621 16.5771 30.3621 16.5769C30.3621 16.5767 30.3621 16.5765 30.3621 16.5763C30.3621 16.5761 30.3621 16.5759 30.3621 16.5757C30.3621 16.5755 30.3621 16.5753 30.3621 16.5752C30.3621 16.575 30.3621 16.5748 30.3621 16.5746C30.3621 16.5744 30.3621 16.5742 30.3621 16.574C30.3621 16.5738 30.3621 16.5736 30.3621 16.5734C30.3621 16.5732 30.3621 16.5731 30.3621 16.5729C30.3621 16.5727 30.3621 16.5725 30.3621 16.5723C30.3621 16.5721 30.3621 16.5719 30.3621 16.5717C30.3621 16.5715 30.3621 16.5713 30.3621 16.5711C30.3621 16.571 30.3621 16.5708 30.3621 16.5706C30.3621 16.5704 30.3621 16.5702 30.3621 16.57C30.3621 16.5698 30.3621 16.5696 30.3621 16.5694C30.3621 16.5692 30.3621 16.5691 30.3621 16.5689C30.3621 16.5687 30.3621 16.5685 30.3621 16.5683C30.3621 16.5681 30.3621 16.5679 30.3621 16.5677C30.3621 16.5675 30.3621 16.5673 30.3621 16.5671C30.3621 16.567 30.3621 16.5668 30.3621 16.5666C30.3621 16.5664 30.3621 16.5662 30.3621 16.566C30.3621 16.5658 30.3621 16.5656 30.3621 16.5654C30.3621 16.5652 30.3621 16.565 30.3621 16.5649C30.3621 16.5647 30.3621 16.5645 30.3621 16.5643C30.3621 16.5641 30.3621 16.5639 30.3621 16.5637C30.3621 16.5635 30.3621 16.5633 30.3621 16.5631C30.3621 16.563 30.3621 16.5628 30.3621 16.5626C30.3621 16.5624 30.3621 16.5622 30.3621 16.562C30.3621 16.5618 30.3621 16.5616 30.3621 16.5614C30.3621 16.5612 30.3621 16.561 30.3621 16.5609C30.3621 16.5607 30.3621 16.5605 30.3621 16.5603C30.3621 16.5601 30.3621 16.5599 30.3621 16.5597C30.3621 16.5595 30.3621 16.5593 30.3621 16.5591C30.3621 16.559 30.3621 16.5588 30.3621 16.5586C30.3621 16.5584 30.3621 16.5582 30.3621 16.558C30.3621 16.5578 30.3621 16.5576 30.3621 16.5574C30.3621 16.5572 30.3621 16.557 30.3621 16.5569C30.3621 16.5567 30.3621 16.5565 30.3621 16.5563C30.3621 16.5561 30.3621 16.5559 30.3621 16.5557C30.3621 16.5555 30.3621 16.5553 30.3621 16.5551C30.3621 16.5549 30.3621 16.5548 30.3621 16.5546C30.3621 16.5544 30.3621 16.5542 30.3621 16.554C30.3621 16.5538 30.3621 16.5536 30.3621 16.5534C30.3621 16.5532 30.3621 16.553 30.3621 16.5529C30.3621 16.5527 30.3621 16.5525 30.3621 16.5523C30.3621 16.5521 30.3621 16.5519 30.3621 16.5517C30.3621 16.5515 30.3621 16.5513 30.3621 16.5511C30.3621 16.5509 30.3621 16.5508 30.3621 16.5506C30.3621 16.5504 30.3621 16.5502 30.3621 16.55C30.3621 16.5498 30.3621 16.5496 30.3621 16.5494C30.3621 16.5492 30.3621 16.549 30.3621 16.5489C30.3621 16.5487 30.3621 16.5485 30.3621 16.5483C30.3621 16.5481 30.3621 16.5479 30.3621 16.5477C30.3621 16.5475 30.3621 16.5473 30.3621 16.5471C30.3621 16.5469 30.3621 16.5468 30.3621 16.5466C30.3621 16.5464 30.3621 16.5462 30.3621 16.546C30.3621 16.5458 30.3621 16.5456 30.3621 16.5454C30.3621 16.5452 30.3621 16.545 30.3621 16.5449C30.3621 16.5447 30.3621 16.5445 30.3621 16.5443C30.3621 16.5441 30.3621 16.5439 30.3621 16.5437C30.3621 16.5435 30.3621 16.5433 30.3621 16.5431C30.3621 16.5429 30.3621 16.5428 30.3621 16.5426C30.3621 16.5424 30.3621 16.5422 30.3621 16.542C30.3621 16.5418 30.3621 16.5416 30.3621 16.5414C30.3621 16.5412 30.3621 16.541 30.3621 16.5409C30.3621 16.5407 30.3621 16.5405 30.3621 16.5403C30.3621 16.5401 30.3621 16.5399 30.3621 16.5397C30.3621 16.5395 30.3621 16.5393 30.3621 16.5391C30.3621 16.5389 30.3621 16.5388 30.3621 16.5386C30.3621 16.5384 30.3621 16.5382 30.3621 16.538C30.3621 16.5378 30.3621 16.5376 30.3621 16.5374C30.3621 16.5372 30.3621 16.537 30.3621 16.5369C30.3621 16.5367 30.3621 16.5365 30.3621 16.5363C30.3621 16.5361 30.3621 16.5359 30.3621 16.5357C30.3621 16.5355 30.3621 16.5353 30.3621 16.5351C30.3621 16.5349 30.3621 16.5348 30.3621 16.5346C30.3621 16.5344 30.3621 16.5342 30.3621 16.534C30.3621 16.5338 30.3621 16.5336 30.3621 16.5334C30.3621 16.5332 30.3621 16.533 30.3621 16.5329C30.3621 16.5327 30.3621 16.5325 30.3621 16.5323C30.3621 16.5321 30.3621 16.5319 30.3621 16.5317C30.3621 16.5315 30.3621 16.5313 30.3621 16.5311C30.3621 16.5309 30.3621 16.5308 30.3621 16.5306C30.3621 16.5304 30.3621 16.5302 30.3621 16.53C30.3621 16.5298 30.3621 16.5296 30.3621 16.5294C30.3621 16.5292 30.3621 16.529 30.3621 16.5289C30.3621 16.5287 30.3621 16.5285 30.3621 16.5283C30.3621 16.5281 30.3621 16.5279 30.3621 16.5277C30.3621 16.5275 30.3621 16.5273 30.3621 16.5271C30.3621 16.5269 30.3621 16.5268 30.3621 16.5266C30.3621 16.5264 30.3621 16.5262 30.3621 16.526C30.3621 16.5258 30.3621 16.5256 30.3621 16.5254C30.3621 16.5252 30.3621 16.525 30.3621 16.5249C30.3621 16.5247 30.3621 16.5245 30.3621 16.5243C30.3621 16.5241 30.3621 16.5239 30.3621 16.5237C30.3621 16.5235 30.3621 16.5233 30.3621 16.5231C30.3621 16.5229 30.3621 16.5228 30.3621 16.5226C30.3621 16.5224 30.3621 16.5222 30.3621 16.522C30.3621 16.5218 30.3621 16.5216 30.3621 16.5214C30.3621 16.5212 30.3621 16.521 30.3621 16.5209C30.3621 16.5207 30.3621 16.5205 30.3621 16.5203C30.3621 16.5201 30.3621 16.5199 30.3621 16.5197C30.3621 16.5195 30.3621 16.5193 30.3621 16.5191C30.3621 16.5189 30.3621 16.5188 30.3621 16.5186C30.3621 16.5184 30.3621 16.5182 30.3621 16.518C30.3621 16.5178 30.3621 16.5176 30.3621 16.5174C30.3621 16.5172 30.3621 16.517 30.3621 16.5169C30.3621 16.5167 30.3621 16.5165 30.3621 16.5163C30.3621 16.5161 30.3621 16.5159 30.3621 16.5157C30.3621 16.5155 30.3621 16.5153 30.3621 16.5151C30.3621 16.5149 30.3621 16.5148 30.3621 16.5146C30.3621 16.5144 30.3621 16.5142 30.3621 16.514C30.3621 16.5138 30.3621 16.5136 30.3621 16.5134C30.3621 16.5132 30.3621 16.513 30.3621 16.5129C30.3621 16.5127 30.3621 16.5125 30.3621 16.5123C30.3621 16.5121 30.3621 16.5119 30.3621 16.5117C30.3621 16.5115 30.3621 16.5113 30.3621 16.5111C30.3621 16.511 30.3621 16.5108 30.3621 16.5106C30.3621 16.5104 30.3621 16.5102 30.3621 16.51C30.3621 16.5098 30.3621 16.5096 30.3621 16.5094C30.3621 16.5092 30.3621 16.509 30.3621 16.5089C30.3621 16.5087 30.3621 16.5085 30.3621 16.5083C30.3621 16.5081 30.3621 16.5079 30.3621 16.5077C30.3621 16.5075 30.3621 16.5073 30.3621 16.5071C30.3621 16.507 30.3621 16.5068 30.3621 16.5066C30.3621 16.5064 30.3621 16.5062 30.3621 16.506C30.3621 16.5058 30.3621 16.5056 30.3621 16.5054C30.3621 16.5052 30.3621 16.505 30.3621 16.5049C30.3621 16.5047 30.3621 16.5045 30.3621 16.5043C30.3621 16.5041 30.3621 16.5039 30.3621 16.5037C30.3621 16.5035 30.3621 16.5033 30.3621 16.5031C30.3621 16.503 30.3621 16.5028 30.3621 16.5026C30.3621 16.5024 30.3621 16.5022 30.3621 16.502C30.3621 16.5018 30.3621 16.5016 30.3621 16.5014C30.3621 16.5012 30.3621 16.501 30.3621 16.5009C30.3621 16.5007 30.3621 16.5005 30.3621 16.5003C30.3621 16.5001 30.3621 16.4999 30.3621 16.4997C30.3621 16.4995 30.3621 16.4993 30.3621 16.4991C30.3621 16.499 30.3621 16.4988 30.3621 16.4986C30.3621 16.4984 30.3621 16.4982 30.3621 16.498C30.3621 16.4978 30.3621 16.4976 30.3621 16.4974C30.3621 16.4972 30.3621 16.497 30.3621 16.4969C30.3621 16.4967 30.3621 16.4965 30.3621 16.4963C30.3621 16.4961 30.3621 16.4959 30.3621 16.4957C30.3621 16.4955 30.3621 16.4953 30.3621 16.4951C30.3621 16.495 30.3621 16.4948 30.3621 16.4946C30.3621 16.4944 30.3621 16.4942 30.3621 16.494C30.3621 16.4938 30.3621 16.4936 30.3621 16.4934C30.3621 16.4932 30.3621 16.4931 30.3621 16.4929C30.3621 16.4927 30.3621 16.4925 30.3621 16.4923C30.3621 16.4921 30.3621 16.4919 30.3621 16.4917C30.3621 16.4915 30.3621 16.4913 30.3621 16.4911C30.3621 16.491 30.3621 16.4908 30.3621 16.4906C30.3621 16.4904 30.3621 16.4902 30.3621 16.49C30.3621 16.4898 30.3621 16.4896 30.3621 16.4894C30.3621 16.4892 30.3621 16.4891 30.3621 16.4889C30.3621 16.4887 30.3621 16.4885 30.3621 16.4883C30.3621 16.4881 30.3621 16.4879 30.3621 16.4877C30.3621 16.4875 30.3621 16.4873 30.3621 16.4871C30.3621 16.487 30.3621 16.4868 30.3621 16.4866C30.3621 16.4864 30.3621 16.4862 30.3621 16.486C30.3621 16.4858 30.3621 16.4856 30.3621 16.4854C30.3621 16.4852 30.3621 16.4851 30.3621 16.4849C30.3621 16.4847 30.3621 16.4845 30.3621 16.4843C30.3621 16.4841 30.3621 16.4839 30.3621 16.4837C30.3621 16.4835 30.3621 16.4833 30.3621 16.4831C30.3621 16.483 30.3621 16.4828 30.3621 16.4826C30.3621 16.4824 30.3621 16.4822 30.3621 16.482C30.3621 16.4818 30.3621 16.4816 30.3621 16.4814C30.3621 16.4812 30.3621 16.4811 30.3621 16.4809C30.3621 16.4807 30.3621 16.4805 30.3621 16.4803C30.3621 16.4801 30.3621 16.4799 30.3621 16.4797C30.3621 16.4795 30.3621 16.4793 30.3621 16.4791C30.3621 16.479 30.3621 16.4788 30.3621 16.4786C30.3621 16.4784 30.3621 16.4782 30.3621 16.478C30.3621 16.4778 30.3621 16.4776 30.3621 16.4774C30.3621 16.4772 30.3621 16.4771 30.3621 16.4769C30.3621 16.4767 30.3621 16.4765 30.3621 16.4763C30.3621 16.4761 30.3621 16.4759 30.3621 16.4757C30.3621 16.4755 30.3621 16.4753 30.3621 16.4752C30.3621 16.475 30.3621 16.4748 30.3621 16.4746C30.3621 16.4744 30.3621 16.4742 30.3621 16.474C30.3621 16.4738 30.3621 16.4736 30.3621 16.4734C30.3621 16.4732 30.3621 16.4731 30.3621 16.4729C30.3621 16.4727 30.3621 16.4725 30.3621 16.4723C30.3621 16.4721 30.3621 16.4719 30.3621 16.4717C30.3621 16.4715 30.3621 16.4713 30.3621 16.4712C30.3621 16.471 30.3621 16.4708 30.3621 16.4706C30.3621 16.4704 30.3621 16.4702 30.3621 16.47C30.3621 16.4698 30.3621 16.4696 30.3621 16.4694C30.3621 16.4692 30.3621 16.4691 30.3621 16.4689C30.3621 16.4687 30.3621 16.4685 30.3621 16.4683C30.3621 16.4681 30.3621 16.4679 30.3621 16.4677C30.3621 16.4675 30.3621 16.4673 30.3621 16.4672C30.3621 16.467 30.3621 16.4668 30.3621 16.4666C30.3621 16.4664 30.3621 16.4662 30.3621 16.466C30.3621 16.4658 30.3621 16.4656 30.3621 16.4654C30.3621 16.4652 30.3621 16.4651 30.3621 16.4649C30.3621 16.4647 30.3621 16.4645 30.3621 16.4643C30.3621 16.4641 30.3621 16.4639 30.3621 16.4637C30.3621 16.4635 30.3621 16.4633 30.3621 16.4632C30.3621 16.463 30.3621 16.4628 30.3621 16.4626C30.3621 16.4624 30.3621 16.4622 30.3621 16.462C30.3621 16.4618 30.3621 16.4616 30.3621 16.4614C30.3621 16.4612 30.3621 16.4611 30.3621 16.4609C30.3621 16.4607 30.3621 16.4605 30.3621 16.4603C30.3621 16.4601 30.3621 16.4599 30.3621 16.4597C30.3621 16.4595 30.3621 16.4593 30.3621 16.4592C30.3621 16.459 30.3621 16.4588 30.3621 16.4586C30.3621 16.4584 30.3621 16.4582 30.3621 16.458C30.3621 16.4578 30.3621 16.4576 30.3621 16.4574C30.3621 16.4572 30.3621 16.4571 30.3621 16.4569C30.3621 16.4567 30.3621 16.4565 30.3621 16.4563C30.3621 16.4561 30.3621 16.4559 30.3621 16.4557C30.3621 16.4555 30.3621 16.4553 30.3621 16.4552C30.3621 16.455 30.3621 16.4548 30.3621 16.4546C30.3621 16.4544 30.3621 16.4542 30.3621 16.454C30.3621 16.4538 30.3621 16.4536 30.3621 16.4534C30.3621 16.4532 30.3621 16.4531 30.3621 16.4529C30.3621 16.4527 30.3621 16.4525 30.3621 16.4523C30.3621 16.4521 30.3621 16.4519 30.3621 16.4517C30.3621 16.4515 30.3621 16.4513 30.3621 16.4512C30.3621 16.451 30.3621 16.4508 30.3621 16.4506C30.3621 16.4504 30.3621 16.4502 30.3621 16.45C30.3621 16.4498 30.3621 16.4496 30.3621 16.4494C30.3621 16.4492 30.3621 16.4491 30.3621 16.4489C30.3621 16.4487 30.3621 16.4485 30.3621 16.4483C30.3621 16.4481 30.3621 16.4479 30.3621 16.4477C30.3621 16.4475 30.3621 16.4473 30.3621 16.4472C30.3621 16.447 30.3621 16.4468 30.3621 16.4466C30.3621 16.4464 30.3621 16.4462 30.3621 16.446C30.3621 16.4458 30.3621 16.4456 30.3621 16.4454C30.3621 16.4452 30.3621 16.4451 30.3621 16.4449C30.3621 16.4447 30.3621 16.4445 30.3621 16.4443C30.3621 16.4441 30.3621 16.4439 30.3621 16.4437C30.3621 16.4435 30.3621 16.4433 30.3621 16.4432C30.3621 16.443 30.3621 16.4428 30.3621 16.4426C30.3621 16.4424 30.3621 16.4422 30.3621 16.442C30.3621 16.4418 30.3621 16.4416 30.3621 16.4414C30.3621 16.4412 30.3621 16.4411 30.3621 16.4409C30.3621 16.4407 30.3621 16.4405 30.3621 16.4403C30.3621 16.4401 30.3621 16.4399 30.3621 16.4397C30.3621 16.4395 30.3621 16.4393 30.3621 16.4391C30.3621 16.439 30.3621 16.4388 30.3621 16.4386C30.3621 16.4384 30.3621 16.4382 30.3621 16.438C30.3621 16.4378 30.3621 16.4376 30.3621 16.4374C30.3621 16.4372 30.3621 16.4371 30.3621 16.4369C30.3621 16.4367 30.3621 16.4365 30.3621 16.4363C30.3621 16.4361 30.3621 16.4359 30.3621 16.4357C30.3621 16.4355 30.3621 16.4353 30.3621 16.4351C30.3621 16.435 30.3621 16.4348 30.3621 16.4346C30.3621 16.4344 30.3621 16.4342 30.3621 16.434C30.3621 16.4338 30.3621 16.4336 30.3621 16.4334C30.3621 16.4332 30.3621 16.4331 30.3621 16.4329C30.3621 16.4327 30.3621 16.4325 30.3621 16.4323C30.3621 16.4321 30.3621 16.4319 30.3621 16.4317C30.3621 16.4315 30.3621 16.4313 30.3621 16.4311C30.3621 16.431 30.3621 16.4308 30.3621 16.4306C30.3621 16.4304 30.3621 16.4302 30.3621 16.43C30.3621 16.4298 30.3621 16.4296 30.3621 16.4294C30.3621 16.4292 30.3621 16.429 30.3621 16.4289C30.3621 16.4287 30.3621 16.4285 30.3621 16.4283C30.3621 16.4281 30.3621 16.4279 30.3621 16.4277C30.3621 16.4275 30.3621 16.4273 30.3621 16.4271C30.3621 16.427 30.3621 16.4268 30.3621 16.4266C30.3621 16.4264 30.3621 16.4262 30.3621 16.426C30.3621 16.4258 30.3621 16.4256 30.3621 16.4254C30.3621 16.4252 30.3621 16.425 30.3621 16.4249C30.3621 16.4247 30.3621 16.4245 30.3621 16.4243C30.3621 16.4241 30.3621 16.4239 30.3621 16.4237C30.3621 16.4235 30.3621 16.4233 30.3621 16.4231C30.3621 16.4229 30.3621 16.4228 30.3621 16.4226C30.3621 16.4224 30.3621 16.4222 30.3621 16.422C30.3621 16.4218 30.3621 16.4216 30.3621 16.4214C30.3621 16.4212 30.3621 16.421 30.3621 16.4209C30.3621 16.4207 30.3621 16.4205 30.3621 16.4203C30.3621 16.4201 30.3621 16.4199 30.3621 16.4197C30.3621 16.4195 30.3621 16.4193 30.3621 16.4191C30.3621 16.4189 30.3621 16.4188 30.3621 16.4186C30.3621 16.4184 30.3621 16.4182 30.3621 16.418C30.3621 16.4178 30.3621 16.4176 30.3621 16.4174C30.3621 16.4172 30.3621 16.417 30.3621 16.4168C30.3621 16.4167 30.3621 16.4165 30.3621 16.4163C30.3621 16.4161 30.3621 16.4159 30.3621 16.4157C30.3621 16.4155 30.3621 16.4153 30.3621 16.4151C30.3621 16.4149 30.3621 16.4148 30.3621 16.4146C30.3621 16.4144 30.3621 16.4142 30.3621 16.414C30.3621 16.4138 30.3621 16.4136 30.3621 16.4134C30.3621 16.4132 30.3621 16.413 30.3621 16.4128C30.3621 16.4127 30.3621 16.4125 30.3621 16.4123C30.3621 16.4121 30.3621 16.4119 30.3621 16.4117C30.3621 16.4115 30.3621 16.4113 30.3621 16.4111C30.3621 16.4109 30.3621 16.4107 30.3621 16.4106C30.3621 16.4104 30.3621 16.4102 30.3621 16.41C30.3621 16.4098 30.3621 16.4096 30.3621 16.4094C30.3621 16.4092 30.3621 16.409 30.3621 16.4088C30.3621 16.4086 30.3621 16.4085 30.3621 16.4083C30.3621 16.4081 30.3621 16.4079 30.3621 16.4077C30.3621 16.4075 30.3621 16.4073 30.3621 16.4071C30.3621 16.4069 30.3621 16.4067 30.3621 16.4066C30.3621 16.4064 30.3621 16.4062 30.3621 16.406C30.3621 16.4058 30.3621 16.4056 30.3621 16.4054C30.3621 16.4052 30.3621 16.405 30.3621 16.4048C30.3621 16.4046 30.3621 16.4045 30.3621 16.4043C30.3621 16.4041 30.3621 16.4039 30.3621 16.4037C30.3621 16.4035 30.3621 16.4033 30.3621 16.4031C30.3621 16.4029 30.3621 16.4027 30.3621 16.4025C30.3621 16.4024 30.3621 16.4022 30.3621 16.402C30.3621 16.4018 30.3621 16.4016 30.3621 16.4014C30.3621 16.4012 30.3621 16.401 30.3621 16.4008C30.3621 16.4006 30.3621 16.4004 30.3621 16.4003C30.3621 16.4001 30.3621 16.3999 30.3621 16.3997C30.3621 16.3995 30.3621 16.3993 30.3621 16.3991C30.3621 16.3989 30.3621 16.3987 30.3621 16.3985C30.3621 16.3983 30.3621 16.3982 30.3621 16.398C30.3621 16.3978 30.3621 16.3976 30.3621 16.3974C30.3621 16.3972 30.3621 16.397 30.3621 16.3968C30.3621 16.3966 30.3621 16.3964 30.3621 16.3963C30.3621 16.3961 30.3621 16.3959 30.3621 16.3957C30.3621 16.3955 30.3621 16.3953 30.3621 16.3951C30.3621 16.3949 30.3621 16.3947 30.3621 16.3945C30.3621 16.3943 30.3621 16.3942 30.3621 16.394C30.3621 16.3938 30.3621 16.3936 30.3621 16.3934C30.3621 16.3932 30.3621 16.393 30.3621 16.3928C30.3621 16.3926 30.3621 16.3924 30.3621 16.3922C30.3621 16.3921 30.3621 16.3919 30.3621 16.3917C30.3621 16.3915 30.3621 16.3913 30.3621 16.3911C30.3621 16.3909 30.3621 16.3907 30.3621 16.3905C30.3621 16.3903 30.3621 16.3901 30.3621 16.39C30.3621 16.3898 30.3621 16.3896 30.3621 16.3894C30.3621 16.3892 30.3621 16.389 30.3621 16.3888C30.3621 16.3886 30.3621 16.3884 30.3621 16.3882C30.3621 16.388 30.3621 16.3879 30.3621 16.3877C30.3621 16.3875 30.3621 16.3873 30.3621 16.3871C30.3621 16.3869 30.3621 16.3867 30.3621 16.3865C30.3621 16.3863 30.3621 16.3861 30.3621 16.3859C30.3621 16.3858 30.3621 16.3856 30.3621 16.3854C30.3621 16.3852 30.3621 16.385 30.3621 16.3848C30.3621 16.3846 30.3621 16.3844 30.3621 16.3842C30.3621 16.384 30.3621 16.3838 30.3621 16.3837C30.3621 16.3835 30.3621 16.3833 30.3621 16.3831C30.3621 16.3829 30.3621 16.3827 30.3621 16.3825C30.3621 16.3823 30.3621 16.3821 30.3621 16.3819C30.3621 16.3817 30.3621 16.3816 30.3621 16.3814C30.3621 16.3812 30.3621 16.381 30.3621 16.3808C30.3621 16.3806 30.3621 16.3804 30.3621 16.3802C30.3621 16.38 30.3621 16.3798 30.3621 16.3796C30.3621 16.3795 30.3621 16.3793 30.3621 16.3791C30.3621 16.3789 30.3621 16.3787 30.3621 16.3785C30.3621 16.3783 30.3621 16.3781 30.3621 16.3779C30.3621 16.3777 30.3621 16.3775 30.3621 16.3774C30.3621 16.3772 30.3621 16.377 30.3621 16.3768C30.3621 16.3766 30.3621 16.3764 30.3621 16.3762C30.3621 16.376 30.3621 16.3758 30.3621 16.3756C30.3621 16.3754 30.3621 16.3753 30.3621 16.3751C30.3621 16.3749 30.3621 16.3747 30.3621 16.3745C30.3621 16.3743 30.3621 16.3741 30.3621 16.3739C30.3621 16.3737 30.3621 16.3735 30.3621 16.3733C30.3621 16.3732 30.3621 16.373 30.3621 16.3728C30.3621 16.3726 30.3621 16.3724 30.3621 16.3722C30.3621 16.372 30.3621 16.3718 30.3621 16.3716C30.3621 16.3714 30.3621 16.3712 30.3621 16.3711C30.3621 16.3709 30.3621 16.3707 30.3621 16.3705C30.3621 16.3703 30.3621 16.3701 30.3621 16.3699C30.3621 16.3697 30.3621 16.3695 30.3621 16.3693C30.3621 16.3691 30.3621 16.369 30.3621 16.3688C30.3621 16.3686 30.3621 16.3684 30.3621 16.3682C30.3621 16.368 30.3621 16.3678 30.3621 16.3676C30.3621 16.3674 30.3621 16.3672 30.3621 16.367C30.3621 16.3669 30.3621 16.3667 30.3621 16.3665C30.3621 16.3663 30.3621 16.3661 30.3621 16.3659C30.3621 16.3657 30.3621 16.3655 30.3621 16.3653C30.3621 16.3651 30.3621 16.3649 30.3621 16.3647C30.3621 16.3646 30.3621 16.3644 30.3621 16.3642C30.3621 16.364 30.3621 16.3638 30.3621 16.3636C30.3621 16.3634 30.3621 16.3632 30.3621 16.363C30.3621 16.3628 30.3621 16.3626 30.3621 16.3625C30.3621 16.3623 30.3621 16.3621 30.3621 16.3619C30.3621 16.3617 30.3621 16.3615 30.3621 16.3613C30.3621 16.3611 30.3621 16.3609 30.3621 16.3607C30.3621 16.3605 30.3621 16.3604 30.3621 16.3602C30.3621 16.36 30.3621 16.3598 30.3621 16.3596C30.3621 16.3594 30.3621 16.3592 30.3621 16.359C30.3621 16.3588 30.3621 16.3586 30.3621 16.3584C30.3621 16.3583 30.3621 16.3581 30.3621 16.3579C30.3621 16.3577 30.3621 16.3575 30.3621 16.3573C30.3621 16.3571 30.3621 16.3569 30.3621 16.3567C30.3621 16.3565 30.3621 16.3563 30.3621 16.3562C30.3621 16.356 30.3621 16.3558 30.3621 16.3556C30.3621 16.3554 30.3621 16.3552 30.3621 16.355C30.3621 16.3548 30.3621 16.3546 30.3621 16.3544C30.3621 16.3542 30.3621 16.354 30.3621 16.3539C30.3621 16.3537 30.3621 16.3535 30.3621 16.3533C30.3621 16.3531 30.3621 16.3529 30.3621 16.3527C30.3621 16.3525 30.3621 16.3523 30.3621 16.3521C30.3621 16.3519 30.3621 16.3518 30.3621 16.3516H28.3621ZM29.3621 15.6444C29.2191 15.6444 29.0703 15.6712 28.9247 15.7322L29.6969 17.5771C29.585 17.6239 29.4699 17.6444 29.3621 17.6444V15.6444Z" fill="#38B000" mask="url(#path-3-inside-1_2_174)"/>
<path d="M2.79051 29.4993H2.79063C4.90918 29.4998 7.02731 29.4997 9.14566 29.4995C10.2049 29.4994 11.2642 29.4993 12.3237 29.4993C13.3925 29.4993 14.4612 29.4994 15.53 29.4995C17.6675 29.4997 19.8051 29.4998 21.943 29.4993H2.79051ZM2.79051 29.4993C2.07076 29.4993 1.51932 29.2621 1.1477 28.8808C0.774837 28.4983 0.539637 27.926 0.539637 27.177V27.1769M2.79051 29.4993L0.539637 27.1769M0.539637 27.1769C0.538871 22.6084 0.538871 18.0391 0.539637 13.4706V13.4705M0.539637 27.1769V13.4705M0.539637 13.4705C0.539637 12.7338 0.774888 12.165 1.14787 11.7828C1.51974 11.4017 2.06878 11.1646 2.7775 11.1646H2.77756M0.539637 13.4705L2.77756 11.1646M2.77756 11.1646C9.16177 11.1639 15.5452 11.1639 21.9294 11.1646H21.9295M2.77756 11.1646H21.9295M21.9295 11.1646C22.6392 11.1646 23.1877 11.4014 23.5589 11.7822M21.9295 11.1646L23.5589 11.7822M24.1666 27.2076V27.2075C24.1674 22.6296 24.1674 18.0509 24.1666 13.4723V27.2076ZM24.1666 27.2076C24.1666 27.9319 23.9313 28.4979 23.5581 28.8804M24.1666 27.2076L23.5581 28.8804M23.5589 11.7822C23.9312 12.1641 24.1662 12.7333 24.1666 13.4721L23.5589 11.7822ZM23.5581 28.8804C23.186 29.2618 22.6397 29.4989 21.9432 29.4993L23.5581 28.8804Z" fill="white" stroke="#38B000"/>
<path d="M20.6879 7.7986C22.5654 7.28421 24.4439 6.76956 26.3203 6.24911C26.378 6.50089 26.4447 6.74874 26.5125 6.98998C25.575 7.24629 24.6371 7.50367 23.6995 7.76096C22.9109 7.97738 22.1224 8.19374 21.3347 8.40933C21.331 8.40952 21.3258 8.4097 21.3184 8.40982C21.3086 8.40998 21.2982 8.40999 21.2832 8.40999H21.283C20.3404 8.41034 19.3979 8.41053 18.4555 8.41064C18.5397 8.3875 18.624 8.36437 18.7082 8.34125C19.3679 8.16024 20.0279 7.97943 20.6879 7.7986ZM26.8336 6.90224C26.8329 6.90243 26.8322 6.90261 26.8316 6.9028L26.8336 6.90224Z" fill="white" stroke="#38B000"/>
<path d="M3.11921 14.2451L3.1192 14.2452C3.11615 15.3662 3.11691 16.4874 3.11921 17.6091C3.11973 17.8136 3.17793 17.9151 3.22665 17.9645C3.27452 18.013 3.37108 18.0699 3.56728 18.0704C3.5673 18.0704 3.56732 18.0704 3.56734 18.0704L3.56602 18.5704C4.22699 18.5721 4.88796 18.5718 5.54893 18.5715C5.81334 18.5714 6.07774 18.5712 6.34215 18.5712C6.62971 18.5712 6.91727 18.5715 7.20484 18.5718C7.85184 18.5725 8.49883 18.5732 9.14583 18.5704L3.11921 14.2451ZM3.11921 14.2451C3.1197 14.0545 3.17594 13.9542 3.22609 13.9033M3.11921 14.2451L3.22609 13.9033M3.22609 13.9033C3.2753 13.8534 3.36972 13.7989 3.55057 13.7986L3.22609 13.9033ZM9.45534 17.9646C9.40324 18.0175 9.30941 18.0697 9.14374 18.0704L9.56279 17.6373C9.56279 17.6374 9.56279 17.6375 9.56279 17.6377C9.56201 17.812 9.50813 17.911 9.45534 17.9646ZM3.55062 13.7986C5.41011 13.7963 7.26959 13.7963 9.12984 13.7986H3.55062Z" fill="#FEFEFE" stroke="#38B000"/>
<path d="M9.09871 25.6027C7.2579 25.6012 5.41787 25.6012 3.57706 25.6027C3.00377 25.6027 2.61188 25.9677 2.61724 26.4892L9.09871 25.6027ZM9.09871 25.6027C9.67506 25.6027 10.0647 25.9645 10.0608 26.4869M9.09871 25.6027L10.0608 26.4869M3.11722 26.4841L3.11722 26.4847C3.11833 26.6077 3.16261 26.6911 3.22317 26.7468C3.28637 26.805 3.39659 26.8587 3.56608 26.8592L3.11722 26.4841ZM3.11722 26.4841C3.1159 26.3562 3.16021 26.2725 3.21983 26.2173C3.28277 26.159 3.39651 26.1027 3.57706 26.1027L3.57749 26.1027M3.11722 26.4841L3.57749 26.1027M3.57749 26.1027C5.41801 26.1012 7.25776 26.1012 9.09828 26.1027H9.09871M3.57749 26.1027L9.09871 26.1027M9.09871 26.1027C9.28245 26.1027 9.39627 26.1593 9.45846 26.2166C9.51713 26.2707 9.56179 26.3537 9.56084 26.4832C9.55988 26.6142 9.5145 26.6944 9.45666 26.7463C9.39425 26.8022 9.27776 26.859 9.08579 26.8592L9.0856 26.8592M9.09871 26.1027L9.0856 26.8592M9.0856 26.8592C8.40008 26.8604 7.71428 26.8603 7.02749 26.8601C6.79851 26.8601 6.56941 26.86 6.34018 26.86C6.07528 26.86 5.81066 26.8601 5.5462 26.8603M9.0856 26.8592L5.5462 26.8603M5.5462 26.8603C4.88577 26.8606 4.22638 26.8609 3.56623 26.8592L5.5462 26.8603ZM10.0608 26.4869C10.057 27.0092 9.66817 27.3584 9.08646 27.3592L10.0608 26.4869Z" fill="#FEFEFE" stroke="#38B000"/>
<path d="M18.0078 14.1796L18.0078 14.1804C18.0088 14.384 18.1485 14.5533 18.4268 14.5558L18.0078 14.1796ZM18.0078 14.1796C18.0065 13.9704 18.1519 13.8013 18.4154 13.8001L18.0078 14.1796ZM21.1849 13.8001L21.1846 13.8001C20.262 13.7954 19.339 13.7962 18.4155 13.8001L21.1849 13.8001ZM21.1849 13.8001C21.4437 13.8013 21.5903 13.9691 21.5881 14.1819C21.5858 14.3894 21.4404 14.5519 21.1905 14.5551C20.8641 14.5589 20.54 14.5581 20.2119 14.5573C20.0737 14.5569 19.9349 14.5566 19.7949 14.5566C19.6517 14.5566 19.5096 14.5569 19.3681 14.5572M21.1849 13.8001L19.3681 14.5572M19.3681 14.5572C19.0527 14.5579 18.7405 14.5585 18.4269 14.5558L19.3681 14.5572Z" fill="#FEFEFE" stroke="#38B000"/>
<path d="M21.1563 18.0706L21.1566 18.0706C21.4536 18.0698 21.5895 17.8973 21.5873 17.6878C21.585 17.4836 21.4478 17.3163 21.1638 17.3141L21.1563 18.0706ZM21.1563 18.0706C20.252 18.0737 19.3477 18.0737 18.4434 18.0706L18.4431 18.0706M21.1563 18.0706L18.4431 18.0706M18.4431 18.0706C18.1406 18.0698 18.0066 17.897 18.0078 17.6903L18.0078 17.6895M18.4431 18.0706L18.0078 17.6895M18.0078 17.6895C18.0084 17.5673 18.0523 17.4836 18.1131 17.4273C18.1765 17.3686 18.2863 17.3148 18.4537 17.3141L18.4542 17.3141M18.0078 17.6895L18.4542 17.3141M18.4542 17.3141C18.7724 17.3125 19.0898 17.3128 19.4091 17.3131C19.5373 17.3132 19.6659 17.3133 19.7949 17.3133C19.9339 17.3133 20.0721 17.3131 20.2099 17.3129M18.4542 17.3141L20.2099 17.3129M20.2099 17.3129C20.5292 17.3124 20.846 17.3119 21.1636 17.3141L20.2099 17.3129Z" fill="#FEFEFE" stroke="#38B000"/>
<path d="M3.50059 23.3437L3.50132 23.3437C4.05847 23.3515 4.61637 23.3515 5.17352 23.3437L3.50059 23.3437ZM3.50059 23.3437C3.26999 23.3408 3.1162 23.176 3.11719 22.9642C3.11816 22.7583 3.26626 22.5929 3.51129 22.5887L3.51129 22.5887M3.50059 23.3437L3.51129 22.5887M3.51129 22.5887L3.51269 22.5887M3.51129 22.5887L3.51269 22.5887M3.51269 22.5887C3.69544 22.585 3.87393 22.586 4.05948 22.587C4.1482 22.5875 4.23853 22.588 4.33171 22.588C4.42505 22.588 4.51548 22.5874 4.60417 22.5869M3.51269 22.5887L4.60417 22.5869M4.60417 22.5869C4.79908 22.5858 4.9856 22.5847 5.1763 22.5894M4.60417 22.5869L5.1763 22.5894M5.1763 22.5894C5.39718 22.5952 5.54923 22.7556 5.55161 22.9619L5.1763 22.5894ZM5.55161 22.962C5.55389 23.1765 5.39948 23.3405 5.17358 23.3437L5.55161 22.962Z" fill="#FEFEFE" stroke="#38B000"/>
<path d="M10.3355 22.5926L10.3354 22.5926C9.76951 22.5833 9.20304 22.5841 8.63583 22.5926L8.6283 22.0927L8.63635 22.5926C8.42398 22.5961 8.26806 22.7554 8.26565 22.9643L10.3355 22.5926ZM10.3355 22.5926C10.5427 22.596 10.6994 22.7548 10.7001 22.9659L10.7001 22.9667M10.3355 22.5926L10.7001 22.9667M10.7001 22.9667C10.7011 23.1753 10.5449 23.3387 10.335 23.3455L10.334 23.3456M10.7001 22.9667L10.334 23.3456M10.334 23.3456C10.1395 23.3523 9.95093 23.3508 9.75051 23.3491C9.65861 23.3484 9.56423 23.3476 9.46565 23.3476C9.37075 23.3476 9.27926 23.3482 9.18967 23.3488M10.334 23.3456L9.18967 23.3488M9.18967 23.3488C9.00557 23.3499 8.82952 23.3511 8.64848 23.347L9.18967 23.3488ZM8.64838 23.347C8.41729 23.3415 8.26342 23.1728 8.26565 22.9644L8.64838 23.347Z" fill="#FEFEFE" stroke="#38B000"/>
<path d="M13.7959 23.3458L13.7964 23.3459C13.9787 23.351 14.1556 23.3498 14.3422 23.3485C14.4292 23.3479 14.5184 23.3472 14.6112 23.3472C14.7054 23.3472 14.7974 23.3476 14.888 23.348C15.0815 23.3488 15.2688 23.3497 15.4596 23.3465C15.7094 23.3417 15.8547 23.1782 15.8563 22.971V22.971C15.858 22.7582 15.7051 22.5943 15.4752 22.5915L15.4752 22.5915C14.9171 22.5845 14.359 22.5837 13.8023 22.5915L13.7959 23.3458ZM13.7959 23.3458C13.5775 23.3399 13.4239 23.1784 13.4219 22.9717L13.7959 23.3458ZM13.4219 22.9716C13.42 22.7611 13.5749 22.5947 13.8022 22.5915L13.4219 22.9716Z" fill="#FEFEFE" stroke="#38B000"/>
<path d="M4.5005 15.5547C4.50097 15.5547 4.50151 15.5547 4.50214 15.5546L4.50359 15.2312L4.3291 15.234M4.5005 15.5547L4.82875 15.2259M4.5005 15.5547C4.49913 15.5548 4.49849 15.5548 4.49851 15.5548L4.5005 15.5547ZM4.3291 15.234L4.50359 15.2308L4.50438 15.0547M4.3291 15.234C4.32681 15.0931 4.36737 15.0547 4.50438 15.0547M4.3291 15.234C4.33752 15.6929 4.33905 16.1518 4.32834 16.6107M4.50438 15.0547V15.2308L4.82883 15.2249C4.82892 15.2237 4.82898 15.2228 4.82901 15.2221M4.50438 15.0547C5.72597 15.0602 6.94756 15.0602 8.16915 15.0547C8.30616 15.0539 8.34749 15.0931 8.34443 15.234C8.33601 15.6929 8.33371 16.1518 8.34519 16.6107M4.82901 15.2221C4.82901 15.223 4.82901 15.2243 4.82904 15.2259L4.82875 15.2259M4.82901 15.2221C4.82908 15.2208 4.82909 15.2201 4.82907 15.2201L4.82901 15.2221ZM4.82875 15.2259L4.50438 15.2312V15.5544C4.51139 15.5537 4.52429 15.552 4.54095 15.5478C4.58064 15.5378 4.65261 15.5111 4.71956 15.4435C4.78661 15.3759 4.81278 15.3035 4.82245 15.2632C4.82655 15.2461 4.82815 15.233 4.82875 15.2259ZM4.32834 16.6107C4.32451 16.7767 4.37196 16.8221 4.53347 16.8198M4.32834 16.6107L4.52995 16.6154M4.32834 16.6107L4.52995 16.6154L4.52488 16.3206C4.51898 16.3199 4.51568 16.3197 4.51564 16.3197C4.51561 16.3198 4.51889 16.32 4.52619 16.3199L4.52621 16.3208M4.53347 16.8198C4.96191 16.8124 5.39036 16.8137 5.81881 16.8149C5.98202 16.8154 6.14523 16.8159 6.30844 16.8159C6.4729 16.8159 6.63735 16.8155 6.80179 16.8151C7.24809 16.814 7.69428 16.8129 8.14006 16.8198M4.53347 16.8198L4.53049 16.6154L4.52995 16.6154M4.53347 16.8198L4.52995 16.6154M8.14006 16.8198C8.30233 16.8221 8.34902 16.7767 8.34519 16.6107M8.14006 16.8198L8.14321 16.6158M8.14006 16.8198L8.14302 16.6158L7.84634 16.6232C7.84543 16.6299 7.84528 16.6337 7.8453 16.6337C7.84532 16.6337 7.84551 16.6302 7.84532 16.6222L7.84647 16.6222M8.34519 16.6107L8.14321 16.6154L8.14775 16.3208L8.14321 16.6158M8.34519 16.6107L8.14321 16.6158M8.14321 16.6158L7.84647 16.6222M7.84647 16.6222C7.84723 16.6168 7.84846 16.6096 7.85043 16.6011C7.85876 16.5651 7.88307 16.4938 7.94949 16.4267C8.01605 16.3594 8.08742 16.3342 8.12427 16.3253C8.13368 16.323 8.14152 16.3217 8.14729 16.3209L8.14302 16.6154L7.84647 16.6222ZM4.52995 16.6154L4.52621 16.3208M4.52621 16.3208C4.53204 16.3216 4.54006 16.323 4.54973 16.3253C4.58655 16.3342 4.65751 16.3594 4.72379 16.4262C4.78999 16.4929 4.81449 16.5638 4.82298 16.6001C4.82507 16.6091 4.82635 16.6166 4.82712 16.6222L4.53049 16.6154L4.52621 16.3208ZM8.17741 15.5548C8.17739 15.5548 8.17669 15.5548 8.17539 15.5547L8.17741 15.5548ZM7.84454 15.2178C7.84455 15.2178 7.84458 15.2184 7.84458 15.2198L7.84454 15.2178ZM7.83959 15.556C7.8368 15.8086 7.83637 16.0621 7.8396 16.3163C7.49113 16.3134 7.14232 16.3143 6.79656 16.3151C6.63305 16.3155 6.47022 16.3159 6.30844 16.3159C6.14844 16.3159 5.98717 16.3154 5.82504 16.3149C5.49681 16.314 5.16512 16.313 4.83363 16.3159C4.83673 16.0621 4.8365 15.8087 4.83384 15.556C5.83576 15.5597 6.83767 15.5597 7.83959 15.556Z" fill="white" stroke="#38B000"/>
</svg>
