<svg width="30" height="30" viewBox="0 0 30 30" fill="none" xmlns="http://www.w3.org/2000/svg">
<path d="M22.8369 6.18495L22.837 6.18506C23.1012 7.85431 22.81 9.39407 21.702 10.7773C20.1891 12.6658 18.1021 13.7716 15.2954 13.9293L15.2953 13.9293C11.6125 14.1366 8.62515 12.3301 7.28384 9.93801L7.2838 9.93794C6.04962 7.73775 6.53991 4.77074 8.50673 2.91702L8.50676 2.917C9.74232 1.75231 11.2222 0.954814 13.0618 0.641986C13.2862 0.604078 13.5086 0.572267 13.7383 0.539409C13.8279 0.52659 13.9187 0.513611 14.0111 0.500049C14.5242 0.500716 15.0372 0.500734 15.5499 0.500734C15.6893 0.523775 15.8261 0.545554 15.9612 0.56706C16.2789 0.617628 16.5871 0.666687 16.8975 0.727102C19.9241 1.31832 22.4478 3.72279 22.8369 6.18495Z" fill="white" stroke="#38B000"/>
<path d="M0.576361 25.6562L0.57637 25.6563C0.69874 26.8561 1.39255 27.8544 2.66147 28.611L0.576361 25.6562ZM0.576361 25.6562C0.331206 23.257 0.665169 20.9176 1.73895 18.6874L0.576361 25.6562ZM4.79275 15.6213L4.79269 15.6213C3.28619 16.294 2.36618 17.3858 1.73901 18.6873L4.79275 15.6213ZM4.79275 15.6213C5.74247 15.1971 6.76989 15.0084 7.86743 14.9923L7.86744 14.9923M4.79275 15.6213L7.86744 14.9923M7.86744 14.9923C8.14112 14.9883 8.40236 15.0848 8.70955 15.2453L8.71009 15.2456M7.86744 14.9923L8.71009 15.2456M8.71009 15.2456C8.92914 15.3597 9.16169 15.4846 9.39764 15.6113C9.69395 15.7704 9.99561 15.9323 10.2826 16.0795L10.2829 16.0797M8.71009 15.2456L10.2829 16.0797M10.2829 16.0797C13.4273 17.6896 16.5985 17.6857 19.7377 16.0665L19.7378 16.0664M10.2829 16.0797L19.7378 16.0664M19.7378 16.0664C19.8062 16.0311 19.876 15.9954 19.9467 15.9593C20.2941 15.7816 20.6639 15.5925 21.0084 15.378C21.5935 15.0144 22.252 14.9454 23.0493 15.0423C25.2429 15.3108 26.7603 16.2966 27.7885 17.8677L27.7886 17.8679M19.7378 16.0664L27.7886 17.8679M27.7886 17.8679C28.7252 19.2976 29.1329 20.866 29.3622 22.5264L29.3622 22.5265M27.7886 17.8679L29.3622 22.5265M29.3622 22.5265C29.4777 23.3605 29.5147 24.2002 29.495 25.0479C29.44 27.3978 27.5753 29.1846 24.5628 29.4535L24.5627 29.4535M29.3622 22.5265L24.5627 29.4535M24.5627 29.4535C24.1946 29.4865 23.825 29.5 23.4514 29.5H23.4513M24.5627 29.4535L23.4513 29.5M23.4513 29.5C20.6299 29.5007 17.8086 29.5007 14.9872 29.5007C14.0388 29.5007 13.0905 29.5006 12.1422 29.5006C10.2457 29.5004 8.34917 29.5002 6.45233 29.5007H6.45221M23.4513 29.5L6.45221 29.5007M6.45221 29.5007C5.04474 29.5014 3.76735 29.2695 2.66167 28.6111L6.45221 29.5007Z" fill="white" stroke="#38B000"/>
</svg>
